<?xml version="1.0" standalone="no"?>
<!DOCTYPE svg PUBLIC "-//W3C//DTD SVG 20010904//EN"
 "http://www.w3.org/TR/2001/REC-SVG-20010904/DTD/svg10.dtd">
<svg version="1.0" xmlns="http://www.w3.org/2000/svg"
 width="260.000000pt" height="260.000000pt" viewBox="0 0 260.000000 260.000000"
 preserveAspectRatio="xMidYMid meet">
<metadata>
Created by potrace 1.14, written by Peter Selinger 2001-2017
</metadata>
<g transform="translate(0.000000,260.000000) scale(0.100000,-0.100000)"
fill="#000000" stroke="none">
<path d="M65 2591 c-11 -5 -29 -19 -40 -31 -20 -22 -20 -38 -23 -1257 l-2
-1235 34 -34 34 -34 1226 0 c1333 0 1268 -3 1294 55 9 20 12 323 12 1251 l0
1226 -34 34 -34 34 -1223 -1 c-673 0 -1233 -4 -1244 -8z m788 -378 c3 -5 55
-228 116 -498 62 -269 113 -494 116 -500 2 -5 4 196 4 448 l1 458 -25 25 c-14
14 -25 34 -25 44 0 19 8 20 140 20 135 0 140 -1 140 -21 0 -11 -10 -29 -22
-39 l-23 -18 -3 -871 -2 -871 -103 0 -103 0 -105 458 -104 457 -3 -340 c-4
-413 1 -479 34 -510 13 -12 24 -32 24 -44 0 -20 -4 -21 -140 -21 l-140 0 0 25
c0 14 7 28 15 31 8 3 19 22 25 42 12 44 13 1532 1 1606 -5 28 -15 53 -25 58
-9 5 -16 22 -16 38 l0 30 109 0 c61 0 112 -3 114 -7z m1117 -308 l0 -305 -24
0 c-23 0 -25 4 -31 68 -19 215 -91 381 -182 418 -67 28 -63 46 -63 -291 0
-326 1 -332 48 -282 30 32 42 71 49 159 6 78 6 78 35 78 l28 0 -2 -377 -3
-378 -26 -3 c-26 -3 -26 -2 -32 76 -7 109 -47 192 -91 192 -11 0 -6 -733 4
-772 6 -20 17 -39 25 -42 8 -3 15 -17 15 -31 l0 -25 -150 0 -150 0 0 25 c0 14
7 28 15 31 8 3 19 22 25 42 14 52 14 1574 -1 1625 -5 21 -17 41 -25 44 -8 3
-14 16 -14 29 l0 24 275 0 275 0 0 -305z"/>
</g>
</svg>
